# xmcd
#
# Track frame offsets: 
#        150
#        15182
#        25597
#        37917
#        50365
#        61710
#        72142
#        83280
#        94385
#        109750
#        126450
#        139925
#        154157
#        167960
#
# Disc length: 2437 seconds
#
# Revision: 4
# Processed by: cddbd v1.5.2PL0 Copyright (c) Steve Scherf et al.
# Submitted via: ExactAudioCopy v0.99pb5
#
DISCID=a809830e
DTITLE=Edwin Starr - The Very Best Of Edwin Starr
DYEAR=1998
DGENRE=
TTITLE0=25 Miles
TTITLE1=Stop Her On Sight (S.O.S)
TTITLE2=Agent Double O Soul
TTITLE3=Back Street
TTITLE4=Headline News
TTITLE5=I'll Love You Forever
TTITLE6=I'm Still A Struggling Man
TTITLE7=If My Heart Could Tell A Story
TTITLE8=War
TTITLE9=Stop The War Now
TTITLE10=Time
TTITLE11=Funky Music Sho Nuff Turns Me On
TTITLE12=There You Go
TTITLE13=Easin' In
EXTD=
EXTT0=
EXTT1=
EXTT2=
EXTT3=
EXTT4=
EXTT5=
EXTT6=
EXTT7=
EXTT8=
EXTT9=
EXTT10=
EXTT11=
EXTT12=
EXTT13=
PLAYORDER=
